<?xml version="1.0" encoding="iso-8859-1"?>
<!-- Generator: Adobe Illustrator 19.0.0, SVG Export Plug-In . SVG Version: 6.00 Build 0)  -->
<svg xmlns="http://www.w3.org/2000/svg" xmlns:xlink="http://www.w3.org/1999/xlink" version="1.1" id="Layer_1" x="0px" y="0px" viewBox="0 0 511.994 511.994" style="enable-background:new 0 0 511.994 511.994;" xml:space="preserve" width="512px" height="512px">
<g>
	<g>
		<g>
			<path d="M501.338,469.342h-10.672v-96c0-5.906-4.766-10.688-10.671-10.688H341.34V245.336c0-5.891-4.781-10.672-10.672-10.672     h-10.672v-32c0-5.891-4.766-10.663-10.656-10.663h-42.671V169.9c21.766-3.125,40.515-15.656,51.983-33.336     c43.797-19.242,54.125-78.897,54.547-81.491c0.516-3.094-0.359-6.25-2.391-8.641c-2.031-2.383-5-3.766-8.141-3.766h-32V32.002     c0-5.891-4.766-10.664-10.672-10.664H191.998c-5.875,0-10.656,4.773-10.656,10.664v10.664h-32c-3.125,0-6.108,1.383-8.124,3.766     c-2.031,2.391-2.906,5.547-2.406,8.641c0.438,2.594,10.749,62.249,54.53,81.491c11.5,17.68,30.25,30.211,51.999,33.336v22.102     H202.67c-5.891,0-10.672,4.772-10.672,10.663v32h-10.656c-5.891,0-10.672,4.781-10.672,10.672v74.664H32     c-5.875,0-10.656,4.781-10.656,10.656v138.686H10.672C4.781,469.343,0,474.109,0,479.999s4.781,10.656,10.672,10.656H32h149.342     h149.326h149.327h21.343c5.891,0,10.656-4.766,10.656-10.656S507.228,469.342,501.338,469.342z M330.668,96.002v-32h18.422     c-3.094,10.258-8.828,25.008-18.594,36.944C330.621,99.306,330.668,97.665,330.668,96.002z M162.967,64.002h18.375v32     c0,1.632,0.062,3.257,0.156,4.866C171.81,88.955,166.06,74.236,162.967,64.002z M170.67,469.342H42.672v-128H170.67V469.342z      M202.67,96.002V42.666h106.67v53.336c0,29.405-23.937,53.335-53.343,53.335C226.592,149.337,202.67,125.408,202.67,96.002z      M213.342,213.336h85.326v21.328h-85.326V213.336z M319.996,373.342v96H191.998V330.656V256h10.672h106.67h10.656V373.342z      M469.339,469.342H341.34v-85.344h127.999V469.342z" fill="#78d5ef"/>
			<path d="M266.669,106.665V74.666c0-5.891-4.766-10.664-10.672-10.664c-5.875,0-10.656,4.773-10.656,10.664v31.999     c0,5.891,4.781,10.672,10.656,10.672C261.903,117.337,266.669,112.556,266.669,106.665z" fill="#78d5ef"/>
		</g>
	</g>
</g>
<g>
</g>
<g>
</g>
<g>
</g>
<g>
</g>
<g>
</g>
<g>
</g>
<g>
</g>
<g>
</g>
<g>
</g>
<g>
</g>
<g>
</g>
<g>
</g>
<g>
</g>
<g>
</g>
<g>
</g>
</svg>
